G04 EAGLE Gerber RS-274X export*
G75*
%MOMM*%
%FSLAX34Y34*%
%LPD*%
%INTop Copper*%
%IPPOS*%
%AMOC8*
5,1,8,0,0,1.08239X$1,22.5*%
G01*
G04 Define Apertures*
%ADD10R,1.850000X1.850000*%
%ADD11C,1.850000*%
%ADD12R,0.950000X0.400000*%
%ADD13R,2.300000X0.350000*%
%ADD14R,0.350000X1.300000*%
%ADD15R,1.164600X1.465300*%
%ADD16R,1.000000X0.700000*%
%ADD17R,0.500000X1.250000*%
%ADD18R,1.250000X0.500000*%
%ADD19R,0.644000X0.535100*%
%ADD20R,0.535100X0.644000*%
%ADD21C,0.600000*%
%ADD22C,0.756400*%
%ADD23C,0.160000*%
%ADD24C,0.350000*%
%ADD25C,0.230000*%
%ADD26C,0.220000*%
%ADD27C,0.250000*%
D10*
X-170700Y284400D03*
D11*
X-170700Y259000D03*
X-170700Y233600D03*
X-170700Y208200D03*
X-170700Y182800D03*
X-170700Y157400D03*
D10*
X-170700Y513000D03*
D11*
X-170700Y487600D03*
X-170700Y462200D03*
X-170700Y436800D03*
X-170700Y411400D03*
X-170700Y386000D03*
X-170700Y360600D03*
X-170700Y335200D03*
D10*
X-246900Y614600D03*
D11*
X-221500Y614600D03*
X-246900Y589200D03*
X-221500Y589200D03*
X-246900Y563800D03*
X-221500Y563800D03*
X-246900Y538400D03*
X-221500Y538400D03*
X-246900Y513000D03*
X-221500Y513000D03*
X-246900Y487600D03*
X-221500Y487600D03*
X-246900Y462200D03*
X-221500Y462200D03*
X-246900Y436800D03*
X-221500Y436800D03*
X-246900Y411400D03*
X-221500Y411400D03*
X-246900Y386000D03*
X-221500Y386000D03*
X-246900Y360600D03*
X-221500Y360600D03*
X-246900Y335200D03*
X-221500Y335200D03*
X-246900Y309800D03*
X-221500Y309800D03*
X-246900Y284400D03*
X-221500Y284400D03*
X-246900Y259000D03*
X-221500Y259000D03*
X-246900Y233600D03*
X-221500Y233600D03*
X-246900Y208200D03*
X-221500Y208200D03*
X-246900Y182800D03*
X-221500Y182800D03*
X-246900Y157400D03*
X-221500Y157400D03*
D10*
X311900Y375840D03*
D11*
X311900Y401240D03*
X311900Y426640D03*
X311900Y452040D03*
X311900Y477440D03*
X311900Y502840D03*
X311900Y528240D03*
X311900Y553640D03*
X311900Y579040D03*
X311900Y604440D03*
X311900Y208200D03*
X311900Y233600D03*
X311900Y259000D03*
X311900Y284400D03*
X311900Y309800D03*
X311900Y335200D03*
D10*
X311900Y157400D03*
D11*
X311900Y182800D03*
D10*
X362700Y614350D03*
D11*
X388100Y614350D03*
X362700Y588950D03*
X388100Y588950D03*
X362700Y563550D03*
X388100Y563550D03*
X362700Y538150D03*
X388100Y538150D03*
X362700Y512750D03*
X388100Y512750D03*
X362700Y487350D03*
X388100Y487350D03*
X362700Y461950D03*
X388100Y461950D03*
X362700Y436550D03*
X388100Y436550D03*
X362700Y411150D03*
X388100Y411150D03*
X362700Y385750D03*
X388100Y385750D03*
X362700Y360350D03*
X388100Y360350D03*
X362700Y334950D03*
X388100Y334950D03*
X362700Y309550D03*
X388100Y309550D03*
X362700Y284150D03*
X388100Y284150D03*
X362700Y258750D03*
X388100Y258750D03*
X362700Y233350D03*
X388100Y233350D03*
X362700Y207950D03*
X388100Y207950D03*
X362700Y182550D03*
X388100Y182550D03*
X362700Y157150D03*
X388100Y157150D03*
D12*
X-24850Y395700D03*
X-38350Y395700D03*
X-38350Y386700D03*
X-24850Y386700D03*
D13*
X-31600Y403450D03*
X-31600Y378950D03*
D14*
X-14350Y391200D03*
X-48850Y391200D03*
D15*
X-43154Y335500D03*
X-25646Y335500D03*
X-43154Y359600D03*
X-25646Y359600D03*
D16*
X24200Y449300D03*
X24200Y427800D03*
X69200Y449300D03*
X69200Y427800D03*
D17*
G36*
X-43306Y501355D02*
X-43262Y506354D01*
X-30764Y506245D01*
X-30808Y501246D01*
X-43306Y501355D01*
G37*
G36*
X-43436Y486355D02*
X-43392Y491354D01*
X-30894Y491245D01*
X-30938Y486246D01*
X-43436Y486355D01*
G37*
D18*
X151400Y505800D03*
X151400Y490800D03*
D19*
X-68900Y492225D03*
X-68900Y502375D03*
X188600Y490225D03*
X188600Y500375D03*
D20*
X-23075Y467000D03*
X-12925Y467000D03*
D21*
X-15000Y335500D02*
X-25646Y335500D01*
X-15000Y335500D02*
X-14500Y335500D01*
X-15000Y335500D02*
X-15000Y359600D01*
X-15000Y376000D01*
X-15000Y359600D02*
X-25646Y359600D01*
X-14500Y335500D02*
X-1000Y322000D01*
X-1000Y314000D01*
D22*
X-1000Y314000D03*
X151000Y469000D03*
D23*
X-37000Y488635D02*
X-37165Y488800D01*
D21*
X-37000Y488635D02*
X-37000Y479000D01*
D22*
X-37000Y479000D03*
D21*
X151000Y469000D02*
X151000Y490400D01*
D23*
X151400Y490800D01*
D24*
X-15000Y376000D02*
X-17950Y378950D01*
X-31600Y378950D01*
D21*
X-184700Y425400D02*
X-207500Y425400D01*
X-221500Y411400D01*
X-184700Y425400D02*
X-170700Y411400D01*
X-185700Y320200D02*
X-206500Y320200D01*
X-221500Y335200D01*
X-185700Y320200D02*
X-170700Y335200D01*
X311900Y553640D02*
X347210Y553640D01*
X362700Y538150D01*
X-60475Y510800D02*
X-68900Y502375D01*
X-44035Y510800D02*
X-37035Y503800D01*
X-44035Y510800D02*
X-60475Y510800D01*
X155400Y509800D02*
X179175Y509800D01*
X155400Y509800D02*
X151400Y505800D01*
X179175Y509800D02*
X188600Y500375D01*
D25*
X-46063Y400376D02*
X-51000Y405313D01*
D21*
X-51000Y421000D02*
X-43000Y429000D01*
X-51000Y421000D02*
X-51000Y405313D01*
D22*
X-43000Y429000D03*
X61000Y380000D03*
D21*
X307740Y380000D01*
D23*
X311900Y375840D01*
X-38350Y395700D02*
X-42026Y399376D01*
X-45063Y399376D02*
X-46063Y400376D01*
X-45063Y399376D02*
X-42026Y399376D01*
D21*
X-6513Y411000D02*
X229000Y411000D01*
D26*
X-6513Y411000D02*
X-17137Y400376D01*
D23*
X-21174Y399376D02*
X-24850Y395700D01*
X-18137Y399376D02*
X-17137Y400376D01*
X-18137Y399376D02*
X-21174Y399376D01*
D21*
X229000Y411000D02*
X245126Y427126D01*
X306979Y497919D02*
X311900Y502840D01*
X306979Y497919D02*
X258900Y497919D01*
X245126Y484145D01*
X245126Y427126D01*
X121800Y427800D02*
X69200Y427800D01*
D23*
X121800Y427800D02*
X123000Y429000D01*
D22*
X123000Y429000D03*
X169000Y355000D03*
D21*
X260800Y208200D02*
X311900Y208200D01*
X260800Y208200D02*
X169000Y300000D01*
X169000Y355000D01*
X-23075Y467000D02*
X-140500Y467000D01*
X-170700Y436800D01*
D23*
X-44654Y337000D02*
X-43154Y335500D01*
D21*
X-44654Y337000D02*
X-54000Y337000D01*
D23*
X-55000Y338000D01*
D21*
X-55000Y360000D01*
X-43554Y360000D01*
D23*
X-43154Y359600D01*
D21*
X-55000Y360000D02*
X-55000Y373000D01*
D23*
X-54500Y373500D01*
D21*
X-117800Y436800D01*
X-170700Y436800D01*
D23*
X-38350Y386700D02*
X-24850Y386700D01*
X-38350Y386700D02*
X-41300Y386700D01*
D27*
X-46074Y381926D02*
X-54500Y373500D01*
X-46074Y381926D02*
X-45951Y381926D01*
X-44326Y383551D01*
X-44326Y383674D01*
X-41300Y386700D01*
D22*
X189000Y471000D03*
X272000Y157000D03*
D23*
X272400Y157400D01*
D21*
X311900Y157400D01*
X189000Y471000D02*
X189000Y489825D01*
X188600Y490225D01*
X-68900Y492225D02*
X-68900Y482100D01*
D23*
X-69000Y482000D01*
D22*
X-69000Y482000D03*
X104000Y168000D03*
D21*
X297100Y168000D02*
X311900Y182800D01*
X297100Y168000D02*
X104000Y168000D01*
X6500Y467000D02*
X-12925Y467000D01*
X6500Y467000D02*
X24200Y449300D01*
M02*
