M48
;GenerationSoftware,Autodesk,EAGLE,9.7.0*%
;CreationDate,2024-11-07T07:35:10Z*%
FMAT,2
ICI,OFF
METRIC,TZ,000.000
T3C0.350
T2C1.100
T1C3.175
%
G90
M71
T1
X-17070Y65270
X15950Y13200
X31190Y64000
T2
X-17070Y25900
X38810Y28415
X36270Y25875
X38810Y25875
X36270Y23335
X38810Y23335
X36270Y20795
X38810Y20795
X36270Y18255
X38810Y18255
X36270Y15715
X-17070Y28440
X-24690Y58920
X-17070Y23360
X-17070Y20820
X-17070Y18280
X-17070Y15740
X-17070Y51300
X-17070Y48760
X-17070Y46220
X-17070Y43680
X-17070Y41140
X-17070Y38600
X-17070Y36060
X-17070Y33520
X-24690Y61460
X-22150Y61460
X38810Y15715
X-22150Y58920
X-24690Y56380
X-22150Y56380
X-24690Y53840
X-22150Y53840
X-24690Y51300
X-22150Y51300
X-24690Y48760
X-22150Y48760
X-24690Y46220
X-22150Y46220
X-24690Y43680
X-22150Y43680
X-24690Y41140
X-22150Y41140
X-24690Y38600
X-22150Y38600
X-24690Y36060
X-22150Y36060
X-24690Y33520
X-22150Y33520
X-24690Y30980
X-22150Y30980
X-24690Y28440
X-22150Y28440
X-24690Y25900
X-22150Y25900
X-24690Y23360
X-22150Y23360
X-24690Y20820
X-22150Y20820
X-24690Y18280
X-22150Y18280
X-24690Y15740
X-22150Y15740
X31190Y37584
X31190Y40124
X31190Y42664
X31190Y45204
X31190Y47744
X31190Y50284
X31190Y52824
X31190Y55364
X31190Y57904
X31190Y60444
X31190Y20820
X31190Y23360
X31190Y25900
X31190Y28440
X31190Y30980
X31190Y33520
X31190Y15740
X31190Y18280
X36270Y61435
X38810Y61435
X36270Y58895
X38810Y58895
X36270Y56355
X38810Y56355
X36270Y53815
X38810Y53815
X36270Y51275
X38810Y51275
X36270Y48735
X38810Y48735
X36270Y46195
X38810Y46195
X36270Y43655
X38810Y43655
X36270Y41115
X38810Y41115
X36270Y38575
X38810Y38575
X36270Y36035
X38810Y36035
X36270Y33495
X38810Y33495
X36270Y30955
X38810Y30955
X36270Y28415
T3
X15100Y46900
X-3700Y47900
X-4300Y42900
X6100Y38000
X12300Y42900
X16900Y35500
X18900Y47100
X27200Y15700
X-6900Y48200
X10400Y16800
X-100Y31400
M30