G04 EAGLE Gerber RS-274X export*
G75*
%MOMM*%
%FSLAX34Y34*%
%LPD*%
%INSoldermask Top*%
%IPPOS*%
%AMOC8*
5,1,8,0,0,1.08239X$1,22.5*%
G01*
G04 Define Apertures*
%ADD10R,2.053200X2.053200*%
%ADD11C,2.053200*%
%ADD12C,3.378200*%
%ADD13R,1.153200X0.603200*%
%ADD14R,2.503200X0.553200*%
%ADD15R,0.553200X1.503200*%
%ADD16R,1.367800X1.668500*%
%ADD17R,1.203200X0.903200*%
%ADD18R,0.703200X1.453200*%
%ADD19R,1.453200X0.703200*%
%ADD20R,0.847200X0.738300*%
%ADD21R,0.738300X0.847200*%
D10*
X-170700Y284400D03*
D11*
X-170700Y259000D03*
X-170700Y233600D03*
X-170700Y208200D03*
X-170700Y182800D03*
X-170700Y157400D03*
D10*
X-170700Y513000D03*
D11*
X-170700Y487600D03*
X-170700Y462200D03*
X-170700Y436800D03*
X-170700Y411400D03*
X-170700Y386000D03*
X-170700Y360600D03*
X-170700Y335200D03*
D10*
X-246900Y614600D03*
D11*
X-221500Y614600D03*
X-246900Y589200D03*
X-221500Y589200D03*
X-246900Y563800D03*
X-221500Y563800D03*
X-246900Y538400D03*
X-221500Y538400D03*
X-246900Y513000D03*
X-221500Y513000D03*
X-246900Y487600D03*
X-221500Y487600D03*
X-246900Y462200D03*
X-221500Y462200D03*
X-246900Y436800D03*
X-221500Y436800D03*
X-246900Y411400D03*
X-221500Y411400D03*
X-246900Y386000D03*
X-221500Y386000D03*
X-246900Y360600D03*
X-221500Y360600D03*
X-246900Y335200D03*
X-221500Y335200D03*
X-246900Y309800D03*
X-221500Y309800D03*
X-246900Y284400D03*
X-221500Y284400D03*
X-246900Y259000D03*
X-221500Y259000D03*
X-246900Y233600D03*
X-221500Y233600D03*
X-246900Y208200D03*
X-221500Y208200D03*
X-246900Y182800D03*
X-221500Y182800D03*
X-246900Y157400D03*
X-221500Y157400D03*
D10*
X311900Y375840D03*
D11*
X311900Y401240D03*
X311900Y426640D03*
X311900Y452040D03*
X311900Y477440D03*
X311900Y502840D03*
X311900Y528240D03*
X311900Y553640D03*
X311900Y579040D03*
X311900Y604440D03*
X311900Y208200D03*
X311900Y233600D03*
X311900Y259000D03*
X311900Y284400D03*
X311900Y309800D03*
X311900Y335200D03*
D10*
X311900Y157400D03*
D11*
X311900Y182800D03*
D10*
X362700Y614350D03*
D11*
X388100Y614350D03*
X362700Y588950D03*
X388100Y588950D03*
X362700Y563550D03*
X388100Y563550D03*
X362700Y538150D03*
X388100Y538150D03*
X362700Y512750D03*
X388100Y512750D03*
X362700Y487350D03*
X388100Y487350D03*
X362700Y461950D03*
X388100Y461950D03*
X362700Y436550D03*
X388100Y436550D03*
X362700Y411150D03*
X388100Y411150D03*
X362700Y385750D03*
X388100Y385750D03*
X362700Y360350D03*
X388100Y360350D03*
X362700Y334950D03*
X388100Y334950D03*
X362700Y309550D03*
X388100Y309550D03*
X362700Y284150D03*
X388100Y284150D03*
X362700Y258750D03*
X388100Y258750D03*
X362700Y233350D03*
X388100Y233350D03*
X362700Y207950D03*
X388100Y207950D03*
X362700Y182550D03*
X388100Y182550D03*
X362700Y157150D03*
X388100Y157150D03*
D12*
X311900Y640000D03*
X-170700Y652700D03*
X159500Y132000D03*
D13*
X-24850Y395700D03*
X-38350Y395700D03*
X-38350Y386700D03*
X-24850Y386700D03*
D14*
X-31600Y403450D03*
X-31600Y378950D03*
D15*
X-14350Y391200D03*
X-48850Y391200D03*
D16*
X-43154Y335500D03*
X-25646Y335500D03*
X-43154Y359600D03*
X-25646Y359600D03*
D17*
X24200Y449300D03*
X24200Y427800D03*
X69200Y449300D03*
X69200Y427800D03*
D18*
G36*
X-44331Y500348D02*
X-44270Y507379D01*
X-29739Y507252D01*
X-29800Y500221D01*
X-44331Y500348D01*
G37*
G36*
X-44461Y485348D02*
X-44400Y492379D01*
X-29869Y492252D01*
X-29930Y485221D01*
X-44461Y485348D01*
G37*
D19*
X151400Y505800D03*
X151400Y490800D03*
D20*
X-68900Y492225D03*
X-68900Y502375D03*
X188600Y490225D03*
X188600Y500375D03*
D21*
X-23075Y467000D03*
X-12925Y467000D03*
M02*
