G04 EAGLE Gerber RS-274X export*
G75*
%MOMM*%
%FSLAX34Y34*%
%LPD*%
%INBoard Outline*%
%IPPOS*%
%AMOC8*
5,1,8,0,0,1.08239X$1,22.5*%
G01*
G04 Define Apertures*
%ADD10C,0.000000*%
%ADD11C,0.254000*%
D10*
X-280000Y107100D02*
X420600Y107100D01*
X420600Y697100D01*
X-280000Y697100D01*
X-280000Y107100D01*
X296025Y640000D02*
X296030Y640390D01*
X296044Y640779D01*
X296068Y641168D01*
X296101Y641556D01*
X296144Y641943D01*
X296197Y642329D01*
X296259Y642714D01*
X296330Y643097D01*
X296411Y643478D01*
X296501Y643857D01*
X296600Y644234D01*
X296709Y644608D01*
X296826Y644980D01*
X296953Y645348D01*
X297089Y645713D01*
X297233Y646075D01*
X297387Y646433D01*
X297549Y646787D01*
X297720Y647138D01*
X297899Y647483D01*
X298087Y647825D01*
X298284Y648161D01*
X298488Y648493D01*
X298700Y648820D01*
X298921Y649141D01*
X299149Y649457D01*
X299385Y649767D01*
X299628Y650071D01*
X299879Y650369D01*
X300137Y650661D01*
X300403Y650946D01*
X300675Y651225D01*
X300954Y651497D01*
X301239Y651763D01*
X301531Y652021D01*
X301829Y652272D01*
X302133Y652515D01*
X302443Y652751D01*
X302759Y652979D01*
X303080Y653200D01*
X303407Y653412D01*
X303739Y653616D01*
X304075Y653813D01*
X304417Y654001D01*
X304762Y654180D01*
X305113Y654351D01*
X305467Y654513D01*
X305825Y654667D01*
X306187Y654811D01*
X306552Y654947D01*
X306920Y655074D01*
X307292Y655191D01*
X307666Y655300D01*
X308043Y655399D01*
X308422Y655489D01*
X308803Y655570D01*
X309186Y655641D01*
X309571Y655703D01*
X309957Y655756D01*
X310344Y655799D01*
X310732Y655832D01*
X311121Y655856D01*
X311510Y655870D01*
X311900Y655875D01*
X312290Y655870D01*
X312679Y655856D01*
X313068Y655832D01*
X313456Y655799D01*
X313843Y655756D01*
X314229Y655703D01*
X314614Y655641D01*
X314997Y655570D01*
X315378Y655489D01*
X315757Y655399D01*
X316134Y655300D01*
X316508Y655191D01*
X316880Y655074D01*
X317248Y654947D01*
X317613Y654811D01*
X317975Y654667D01*
X318333Y654513D01*
X318687Y654351D01*
X319038Y654180D01*
X319383Y654001D01*
X319725Y653813D01*
X320061Y653616D01*
X320393Y653412D01*
X320720Y653200D01*
X321041Y652979D01*
X321357Y652751D01*
X321667Y652515D01*
X321971Y652272D01*
X322269Y652021D01*
X322561Y651763D01*
X322846Y651497D01*
X323125Y651225D01*
X323397Y650946D01*
X323663Y650661D01*
X323921Y650369D01*
X324172Y650071D01*
X324415Y649767D01*
X324651Y649457D01*
X324879Y649141D01*
X325100Y648820D01*
X325312Y648493D01*
X325516Y648161D01*
X325713Y647825D01*
X325901Y647483D01*
X326080Y647138D01*
X326251Y646787D01*
X326413Y646433D01*
X326567Y646075D01*
X326711Y645713D01*
X326847Y645348D01*
X326974Y644980D01*
X327091Y644608D01*
X327200Y644234D01*
X327299Y643857D01*
X327389Y643478D01*
X327470Y643097D01*
X327541Y642714D01*
X327603Y642329D01*
X327656Y641943D01*
X327699Y641556D01*
X327732Y641168D01*
X327756Y640779D01*
X327770Y640390D01*
X327775Y640000D01*
X327770Y639610D01*
X327756Y639221D01*
X327732Y638832D01*
X327699Y638444D01*
X327656Y638057D01*
X327603Y637671D01*
X327541Y637286D01*
X327470Y636903D01*
X327389Y636522D01*
X327299Y636143D01*
X327200Y635766D01*
X327091Y635392D01*
X326974Y635020D01*
X326847Y634652D01*
X326711Y634287D01*
X326567Y633925D01*
X326413Y633567D01*
X326251Y633213D01*
X326080Y632862D01*
X325901Y632517D01*
X325713Y632175D01*
X325516Y631839D01*
X325312Y631507D01*
X325100Y631180D01*
X324879Y630859D01*
X324651Y630543D01*
X324415Y630233D01*
X324172Y629929D01*
X323921Y629631D01*
X323663Y629339D01*
X323397Y629054D01*
X323125Y628775D01*
X322846Y628503D01*
X322561Y628237D01*
X322269Y627979D01*
X321971Y627728D01*
X321667Y627485D01*
X321357Y627249D01*
X321041Y627021D01*
X320720Y626800D01*
X320393Y626588D01*
X320061Y626384D01*
X319725Y626187D01*
X319383Y625999D01*
X319038Y625820D01*
X318687Y625649D01*
X318333Y625487D01*
X317975Y625333D01*
X317613Y625189D01*
X317248Y625053D01*
X316880Y624926D01*
X316508Y624809D01*
X316134Y624700D01*
X315757Y624601D01*
X315378Y624511D01*
X314997Y624430D01*
X314614Y624359D01*
X314229Y624297D01*
X313843Y624244D01*
X313456Y624201D01*
X313068Y624168D01*
X312679Y624144D01*
X312290Y624130D01*
X311900Y624125D01*
X311510Y624130D01*
X311121Y624144D01*
X310732Y624168D01*
X310344Y624201D01*
X309957Y624244D01*
X309571Y624297D01*
X309186Y624359D01*
X308803Y624430D01*
X308422Y624511D01*
X308043Y624601D01*
X307666Y624700D01*
X307292Y624809D01*
X306920Y624926D01*
X306552Y625053D01*
X306187Y625189D01*
X305825Y625333D01*
X305467Y625487D01*
X305113Y625649D01*
X304762Y625820D01*
X304417Y625999D01*
X304075Y626187D01*
X303739Y626384D01*
X303407Y626588D01*
X303080Y626800D01*
X302759Y627021D01*
X302443Y627249D01*
X302133Y627485D01*
X301829Y627728D01*
X301531Y627979D01*
X301239Y628237D01*
X300954Y628503D01*
X300675Y628775D01*
X300403Y629054D01*
X300137Y629339D01*
X299879Y629631D01*
X299628Y629929D01*
X299385Y630233D01*
X299149Y630543D01*
X298921Y630859D01*
X298700Y631180D01*
X298488Y631507D01*
X298284Y631839D01*
X298087Y632175D01*
X297899Y632517D01*
X297720Y632862D01*
X297549Y633213D01*
X297387Y633567D01*
X297233Y633925D01*
X297089Y634287D01*
X296953Y634652D01*
X296826Y635020D01*
X296709Y635392D01*
X296600Y635766D01*
X296501Y636143D01*
X296411Y636522D01*
X296330Y636903D01*
X296259Y637286D01*
X296197Y637671D01*
X296144Y638057D01*
X296101Y638444D01*
X296068Y638832D01*
X296044Y639221D01*
X296030Y639610D01*
X296025Y640000D01*
X-186575Y652700D02*
X-186570Y653090D01*
X-186556Y653479D01*
X-186532Y653868D01*
X-186499Y654256D01*
X-186456Y654643D01*
X-186403Y655029D01*
X-186341Y655414D01*
X-186270Y655797D01*
X-186189Y656178D01*
X-186099Y656557D01*
X-186000Y656934D01*
X-185891Y657308D01*
X-185774Y657680D01*
X-185647Y658048D01*
X-185511Y658413D01*
X-185367Y658775D01*
X-185213Y659133D01*
X-185051Y659487D01*
X-184880Y659838D01*
X-184701Y660183D01*
X-184513Y660525D01*
X-184316Y660861D01*
X-184112Y661193D01*
X-183900Y661520D01*
X-183679Y661841D01*
X-183451Y662157D01*
X-183215Y662467D01*
X-182972Y662771D01*
X-182721Y663069D01*
X-182463Y663361D01*
X-182197Y663646D01*
X-181925Y663925D01*
X-181646Y664197D01*
X-181361Y664463D01*
X-181069Y664721D01*
X-180771Y664972D01*
X-180467Y665215D01*
X-180157Y665451D01*
X-179841Y665679D01*
X-179520Y665900D01*
X-179193Y666112D01*
X-178861Y666316D01*
X-178525Y666513D01*
X-178183Y666701D01*
X-177838Y666880D01*
X-177487Y667051D01*
X-177133Y667213D01*
X-176775Y667367D01*
X-176413Y667511D01*
X-176048Y667647D01*
X-175680Y667774D01*
X-175308Y667891D01*
X-174934Y668000D01*
X-174557Y668099D01*
X-174178Y668189D01*
X-173797Y668270D01*
X-173414Y668341D01*
X-173029Y668403D01*
X-172643Y668456D01*
X-172256Y668499D01*
X-171868Y668532D01*
X-171479Y668556D01*
X-171090Y668570D01*
X-170700Y668575D01*
X-170310Y668570D01*
X-169921Y668556D01*
X-169532Y668532D01*
X-169144Y668499D01*
X-168757Y668456D01*
X-168371Y668403D01*
X-167986Y668341D01*
X-167603Y668270D01*
X-167222Y668189D01*
X-166843Y668099D01*
X-166466Y668000D01*
X-166092Y667891D01*
X-165720Y667774D01*
X-165352Y667647D01*
X-164987Y667511D01*
X-164625Y667367D01*
X-164267Y667213D01*
X-163913Y667051D01*
X-163562Y666880D01*
X-163217Y666701D01*
X-162875Y666513D01*
X-162539Y666316D01*
X-162207Y666112D01*
X-161880Y665900D01*
X-161559Y665679D01*
X-161243Y665451D01*
X-160933Y665215D01*
X-160629Y664972D01*
X-160331Y664721D01*
X-160039Y664463D01*
X-159754Y664197D01*
X-159475Y663925D01*
X-159203Y663646D01*
X-158937Y663361D01*
X-158679Y663069D01*
X-158428Y662771D01*
X-158185Y662467D01*
X-157949Y662157D01*
X-157721Y661841D01*
X-157500Y661520D01*
X-157288Y661193D01*
X-157084Y660861D01*
X-156887Y660525D01*
X-156699Y660183D01*
X-156520Y659838D01*
X-156349Y659487D01*
X-156187Y659133D01*
X-156033Y658775D01*
X-155889Y658413D01*
X-155753Y658048D01*
X-155626Y657680D01*
X-155509Y657308D01*
X-155400Y656934D01*
X-155301Y656557D01*
X-155211Y656178D01*
X-155130Y655797D01*
X-155059Y655414D01*
X-154997Y655029D01*
X-154944Y654643D01*
X-154901Y654256D01*
X-154868Y653868D01*
X-154844Y653479D01*
X-154830Y653090D01*
X-154825Y652700D01*
X-154830Y652310D01*
X-154844Y651921D01*
X-154868Y651532D01*
X-154901Y651144D01*
X-154944Y650757D01*
X-154997Y650371D01*
X-155059Y649986D01*
X-155130Y649603D01*
X-155211Y649222D01*
X-155301Y648843D01*
X-155400Y648466D01*
X-155509Y648092D01*
X-155626Y647720D01*
X-155753Y647352D01*
X-155889Y646987D01*
X-156033Y646625D01*
X-156187Y646267D01*
X-156349Y645913D01*
X-156520Y645562D01*
X-156699Y645217D01*
X-156887Y644875D01*
X-157084Y644539D01*
X-157288Y644207D01*
X-157500Y643880D01*
X-157721Y643559D01*
X-157949Y643243D01*
X-158185Y642933D01*
X-158428Y642629D01*
X-158679Y642331D01*
X-158937Y642039D01*
X-159203Y641754D01*
X-159475Y641475D01*
X-159754Y641203D01*
X-160039Y640937D01*
X-160331Y640679D01*
X-160629Y640428D01*
X-160933Y640185D01*
X-161243Y639949D01*
X-161559Y639721D01*
X-161880Y639500D01*
X-162207Y639288D01*
X-162539Y639084D01*
X-162875Y638887D01*
X-163217Y638699D01*
X-163562Y638520D01*
X-163913Y638349D01*
X-164267Y638187D01*
X-164625Y638033D01*
X-164987Y637889D01*
X-165352Y637753D01*
X-165720Y637626D01*
X-166092Y637509D01*
X-166466Y637400D01*
X-166843Y637301D01*
X-167222Y637211D01*
X-167603Y637130D01*
X-167986Y637059D01*
X-168371Y636997D01*
X-168757Y636944D01*
X-169144Y636901D01*
X-169532Y636868D01*
X-169921Y636844D01*
X-170310Y636830D01*
X-170700Y636825D01*
X-171090Y636830D01*
X-171479Y636844D01*
X-171868Y636868D01*
X-172256Y636901D01*
X-172643Y636944D01*
X-173029Y636997D01*
X-173414Y637059D01*
X-173797Y637130D01*
X-174178Y637211D01*
X-174557Y637301D01*
X-174934Y637400D01*
X-175308Y637509D01*
X-175680Y637626D01*
X-176048Y637753D01*
X-176413Y637889D01*
X-176775Y638033D01*
X-177133Y638187D01*
X-177487Y638349D01*
X-177838Y638520D01*
X-178183Y638699D01*
X-178525Y638887D01*
X-178861Y639084D01*
X-179193Y639288D01*
X-179520Y639500D01*
X-179841Y639721D01*
X-180157Y639949D01*
X-180467Y640185D01*
X-180771Y640428D01*
X-181069Y640679D01*
X-181361Y640937D01*
X-181646Y641203D01*
X-181925Y641475D01*
X-182197Y641754D01*
X-182463Y642039D01*
X-182721Y642331D01*
X-182972Y642629D01*
X-183215Y642933D01*
X-183451Y643243D01*
X-183679Y643559D01*
X-183900Y643880D01*
X-184112Y644207D01*
X-184316Y644539D01*
X-184513Y644875D01*
X-184701Y645217D01*
X-184880Y645562D01*
X-185051Y645913D01*
X-185213Y646267D01*
X-185367Y646625D01*
X-185511Y646987D01*
X-185647Y647352D01*
X-185774Y647720D01*
X-185891Y648092D01*
X-186000Y648466D01*
X-186099Y648843D01*
X-186189Y649222D01*
X-186270Y649603D01*
X-186341Y649986D01*
X-186403Y650371D01*
X-186456Y650757D01*
X-186499Y651144D01*
X-186532Y651532D01*
X-186556Y651921D01*
X-186570Y652310D01*
X-186575Y652700D01*
X143625Y132000D02*
X143630Y132390D01*
X143644Y132779D01*
X143668Y133168D01*
X143701Y133556D01*
X143744Y133943D01*
X143797Y134329D01*
X143859Y134714D01*
X143930Y135097D01*
X144011Y135478D01*
X144101Y135857D01*
X144200Y136234D01*
X144309Y136608D01*
X144426Y136980D01*
X144553Y137348D01*
X144689Y137713D01*
X144833Y138075D01*
X144987Y138433D01*
X145149Y138787D01*
X145320Y139138D01*
X145499Y139483D01*
X145687Y139825D01*
X145884Y140161D01*
X146088Y140493D01*
X146300Y140820D01*
X146521Y141141D01*
X146749Y141457D01*
X146985Y141767D01*
X147228Y142071D01*
X147479Y142369D01*
X147737Y142661D01*
X148003Y142946D01*
X148275Y143225D01*
X148554Y143497D01*
X148839Y143763D01*
X149131Y144021D01*
X149429Y144272D01*
X149733Y144515D01*
X150043Y144751D01*
X150359Y144979D01*
X150680Y145200D01*
X151007Y145412D01*
X151339Y145616D01*
X151675Y145813D01*
X152017Y146001D01*
X152362Y146180D01*
X152713Y146351D01*
X153067Y146513D01*
X153425Y146667D01*
X153787Y146811D01*
X154152Y146947D01*
X154520Y147074D01*
X154892Y147191D01*
X155266Y147300D01*
X155643Y147399D01*
X156022Y147489D01*
X156403Y147570D01*
X156786Y147641D01*
X157171Y147703D01*
X157557Y147756D01*
X157944Y147799D01*
X158332Y147832D01*
X158721Y147856D01*
X159110Y147870D01*
X159500Y147875D01*
X159890Y147870D01*
X160279Y147856D01*
X160668Y147832D01*
X161056Y147799D01*
X161443Y147756D01*
X161829Y147703D01*
X162214Y147641D01*
X162597Y147570D01*
X162978Y147489D01*
X163357Y147399D01*
X163734Y147300D01*
X164108Y147191D01*
X164480Y147074D01*
X164848Y146947D01*
X165213Y146811D01*
X165575Y146667D01*
X165933Y146513D01*
X166287Y146351D01*
X166638Y146180D01*
X166983Y146001D01*
X167325Y145813D01*
X167661Y145616D01*
X167993Y145412D01*
X168320Y145200D01*
X168641Y144979D01*
X168957Y144751D01*
X169267Y144515D01*
X169571Y144272D01*
X169869Y144021D01*
X170161Y143763D01*
X170446Y143497D01*
X170725Y143225D01*
X170997Y142946D01*
X171263Y142661D01*
X171521Y142369D01*
X171772Y142071D01*
X172015Y141767D01*
X172251Y141457D01*
X172479Y141141D01*
X172700Y140820D01*
X172912Y140493D01*
X173116Y140161D01*
X173313Y139825D01*
X173501Y139483D01*
X173680Y139138D01*
X173851Y138787D01*
X174013Y138433D01*
X174167Y138075D01*
X174311Y137713D01*
X174447Y137348D01*
X174574Y136980D01*
X174691Y136608D01*
X174800Y136234D01*
X174899Y135857D01*
X174989Y135478D01*
X175070Y135097D01*
X175141Y134714D01*
X175203Y134329D01*
X175256Y133943D01*
X175299Y133556D01*
X175332Y133168D01*
X175356Y132779D01*
X175370Y132390D01*
X175375Y132000D01*
X175370Y131610D01*
X175356Y131221D01*
X175332Y130832D01*
X175299Y130444D01*
X175256Y130057D01*
X175203Y129671D01*
X175141Y129286D01*
X175070Y128903D01*
X174989Y128522D01*
X174899Y128143D01*
X174800Y127766D01*
X174691Y127392D01*
X174574Y127020D01*
X174447Y126652D01*
X174311Y126287D01*
X174167Y125925D01*
X174013Y125567D01*
X173851Y125213D01*
X173680Y124862D01*
X173501Y124517D01*
X173313Y124175D01*
X173116Y123839D01*
X172912Y123507D01*
X172700Y123180D01*
X172479Y122859D01*
X172251Y122543D01*
X172015Y122233D01*
X171772Y121929D01*
X171521Y121631D01*
X171263Y121339D01*
X170997Y121054D01*
X170725Y120775D01*
X170446Y120503D01*
X170161Y120237D01*
X169869Y119979D01*
X169571Y119728D01*
X169267Y119485D01*
X168957Y119249D01*
X168641Y119021D01*
X168320Y118800D01*
X167993Y118588D01*
X167661Y118384D01*
X167325Y118187D01*
X166983Y117999D01*
X166638Y117820D01*
X166287Y117649D01*
X165933Y117487D01*
X165575Y117333D01*
X165213Y117189D01*
X164848Y117053D01*
X164480Y116926D01*
X164108Y116809D01*
X163734Y116700D01*
X163357Y116601D01*
X162978Y116511D01*
X162597Y116430D01*
X162214Y116359D01*
X161829Y116297D01*
X161443Y116244D01*
X161056Y116201D01*
X160668Y116168D01*
X160279Y116144D01*
X159890Y116130D01*
X159500Y116125D01*
X159110Y116130D01*
X158721Y116144D01*
X158332Y116168D01*
X157944Y116201D01*
X157557Y116244D01*
X157171Y116297D01*
X156786Y116359D01*
X156403Y116430D01*
X156022Y116511D01*
X155643Y116601D01*
X155266Y116700D01*
X154892Y116809D01*
X154520Y116926D01*
X154152Y117053D01*
X153787Y117189D01*
X153425Y117333D01*
X153067Y117487D01*
X152713Y117649D01*
X152362Y117820D01*
X152017Y117999D01*
X151675Y118187D01*
X151339Y118384D01*
X151007Y118588D01*
X150680Y118800D01*
X150359Y119021D01*
X150043Y119249D01*
X149733Y119485D01*
X149429Y119728D01*
X149131Y119979D01*
X148839Y120237D01*
X148554Y120503D01*
X148275Y120775D01*
X148003Y121054D01*
X147737Y121339D01*
X147479Y121631D01*
X147228Y121929D01*
X146985Y122233D01*
X146749Y122543D01*
X146521Y122859D01*
X146300Y123180D01*
X146088Y123507D01*
X145884Y123839D01*
X145687Y124175D01*
X145499Y124517D01*
X145320Y124862D01*
X145149Y125213D01*
X144987Y125567D01*
X144833Y125925D01*
X144689Y126287D01*
X144553Y126652D01*
X144426Y127020D01*
X144309Y127392D01*
X144200Y127766D01*
X144101Y128143D01*
X144011Y128522D01*
X143930Y128903D01*
X143859Y129286D01*
X143797Y129671D01*
X143744Y130057D01*
X143701Y130444D01*
X143668Y130832D01*
X143644Y131221D01*
X143630Y131610D01*
X143625Y132000D01*
D11*
X-280000Y107100D02*
X420600Y107100D01*
X420600Y697100D01*
X-280000Y697100D01*
X-280000Y107100D01*
M02*
